<svg width="18" height="14" viewBox="0 0 18 14" fill="none" xmlns="http://www.w3.org/2000/svg">
<path fill-rule="evenodd" clip-rule="evenodd" d="M10.1336 0.159776C9.9457 0.362132 9.95742 0.678497 10.1598 0.866398L16.7652 7L10.1598 13.1336C9.95742 13.3215 9.9457 13.6379 10.1336 13.8402C10.3215 14.0426 10.6379 14.0543 10.8402 13.8664L17.8402 7.3664C17.9421 7.27179 18 7.13904 18 7C18 6.86097 17.9421 6.72821 17.8402 6.6336L10.8402 0.133605C10.6379 -0.0542963 10.3215 -0.0425791 10.1336 0.159776Z" fill="#374151"/>
<path fill-rule="evenodd" clip-rule="evenodd" d="M17 7C17 6.72386 16.7997 6.5 16.5526 6.5L0.447369 6.5C0.200295 6.5 1.09424e-07 6.72386 9.73538e-08 7C8.52833e-08 7.27614 0.200295 7.5 0.447369 7.5L16.5526 7.5C16.7997 7.5 17 7.27614 17 7Z" fill="#374151"/>
</svg>
