<svg width="32" height="32" viewBox="0 0 32 32" fill="none" xmlns="http://www.w3.org/2000/svg">
<path fill-rule="evenodd" clip-rule="evenodd" d="M19 26C19 24.3431 20.3431 23 22 23C23.6569 23 25 24.3431 25 26C25 27.6569 23.6569 29 22 29C20.3431 29 19 27.6569 19 26ZM23 26C23 25.4477 22.5523 25 22 25C21.4477 25 21 25.4477 21 26C21 26.5523 21.4477 27 22 27C22.5523 27 23 26.5523 23 26Z" fill="#464646"/>
<path fill-rule="evenodd" clip-rule="evenodd" d="M9 26C9 24.3431 10.3431 23 12 23C13.6569 23 15 24.3431 15 26C15 27.6569 13.6569 29 12 29C10.3431 29 9 27.6569 9 26ZM13 26C13 25.4477 12.5523 25 12 25C11.4477 25 11 25.4477 11 26C11 26.5523 11.4477 27 12 27C12.5523 27 13 26.5523 13 26Z" fill="#464646"/>
<path fill-rule="evenodd" clip-rule="evenodd" d="M8 8H26.6126C27.7171 8 28.6126 8.89543 28.6126 10C28.6126 10.215 28.5779 10.4285 28.5099 10.6325L25.1766 20.6325C24.9044 21.4491 24.1401 22 23.2792 22H10.8471C9.86945 22 9.03507 21.2932 8.87434 20.3288L7.01361 9.1644C6.91202 8.55487 7.38206 8 8 8ZM26.6126 10H9.18L10.8471 20H23.2792L26.6126 10Z" fill="#464646"/>
<path d="M7 3C7.43696 3 7.81823 3.28272 7.95075 3.68988L7.98058 3.80388L8.98058 8.80388C9.08889 9.34544 8.73768 9.87227 8.19612 9.98058C7.69324 10.0812 7.20307 9.78551 7.04889 9.30915L7.01942 9.19612L6.18 5H4C3.48716 5 3.06449 4.61396 3.00673 4.11662L3 4C3 3.48716 3.38604 3.06449 3.88338 3.00673L4 3H7Z" fill="#464646"/>
</svg>
