<svg width="32" height="32" viewBox="0 0 32 32" fill="none" xmlns="http://www.w3.org/2000/svg">
<path fill-rule="evenodd" clip-rule="evenodd" d="M20 24C20 22.3431 21.3431 21 23 21C24.6569 21 26 22.3431 26 24C26 25.6569 24.6569 27 23 27C21.3431 27 20 25.6569 20 24ZM24 24C24 23.4477 23.5523 23 23 23C22.4477 23 22 23.4477 22 24C22 24.5523 22.4477 25 23 25C23.5523 25 24 24.5523 24 24Z" fill="#374151"/>
<path d="M16 24C15.4477 24 15 23.5523 15 23C15 22.4872 15.386 22.0645 15.8834 22.0067L16 22H18C18.5523 22 19 22.4477 19 23C19 23.5128 18.614 23.9355 18.1166 23.9933L18 24H16Z" fill="#374151"/>
<path fill-rule="evenodd" clip-rule="evenodd" d="M8 24C8 22.3431 9.34315 21 11 21C12.6569 21 14 22.3431 14 24C14 25.6569 12.6569 27 11 27C9.34315 27 8 25.6569 8 24ZM12 24C12 23.4477 11.5523 23 11 23C10.4477 23 10 23.4477 10 24C10 24.5523 10.4477 25 11 25C11.5523 25 12 24.5523 12 24Z" fill="#374151"/>
<path d="M26 24V15.6056C26 15.4476 25.9626 15.2925 25.8916 15.1527L25.8321 15.0509L22.7617 10.4453C22.5994 10.2019 22.3401 10.0435 22.0538 10.0077L21.9296 10H20V8H21.9296C22.8658 8 23.7442 8.43669 24.3095 9.17347L24.4258 9.3359L27.4962 13.9415C27.7836 14.3727 27.9538 14.8699 27.9918 15.3842L28 15.6056V22C28 23.0544 27.1841 23.9182 26.1493 23.9945L26 24Z" fill="#374151"/>
<path d="M8 23C6.94564 23 6.08183 22.1841 6.00549 21.1493L6 21V19H8V23Z" fill="#374151"/>
<path fill-rule="evenodd" clip-rule="evenodd" d="M6 5H18C19.6569 5 21 6.34315 21 8V17C21 18.6569 19.6569 20 18 20H6C4.34315 20 3 18.6569 3 17V8C3 6.34315 4.34315 5 6 5ZM18 7H6C5.44772 7 5 7.44772 5 8V17C5 17.5523 5.44772 18 6 18H18C18.5523 18 19 17.5523 19 17V8C19 7.44772 18.5523 7 18 7Z" fill="#374151"/>
</svg>
