<svg width="12" height="22" viewBox="0 0 12 22" fill="none" xmlns="http://www.w3.org/2000/svg">
<path d="M10.6354 17.6318C9.72563 18.4549 8.40433 18.9097 6.64982 18.9964V21.6606H5.50181V19.0397C4.37545 18.9747 3.31408 18.7581 2.33935 18.3899C1.34296 18.0217 0.563177 17.5235 0 16.9603L0.67148 15.639C1.213 16.1588 1.90614 16.5921 2.77256 16.9603C3.63899 17.3069 4.54874 17.5235 5.50181 17.5884V11.5235C4.44043 11.2635 3.55235 10.9819 2.85921 10.6787C2.1444 10.3755 1.55957 9.94224 1.10469 9.3574C0.628158 8.77256 0.389891 7.99278 0.389891 7.06137C0.389891 5.87004 0.823105 4.87365 1.68953 4.0722C2.55596 3.27076 3.83393 2.79422 5.52346 2.66426V0H6.67148V2.62094C7.53791 2.6426 8.40433 2.79422 9.22744 3.05415C10.0505 3.31408 10.7653 3.63899 11.3502 4.05054L10.7653 5.41516C10.1372 5.02527 9.4657 4.70036 8.7509 4.46209C8.0361 4.22383 7.34296 4.09386 6.64982 4.0722V10.1805C7.77617 10.4621 8.70758 10.7437 9.44404 11.0253C10.1588 11.3069 10.7653 11.7401 11.2635 12.3249C11.7617 12.9097 12 13.6679 12 14.6209C12 15.8123 11.5451 16.8087 10.6354 17.6318ZM2.96751 8.81588C3.55235 9.22744 4.39711 9.57401 5.50181 9.87726V4.11552C4.37545 4.22383 3.50902 4.52708 2.92419 5.04693C2.33935 5.58845 2.05776 6.2166 2.05776 6.99639C2.07942 7.79783 2.36101 8.40433 2.96751 8.81588ZM9.40072 16.657C10.0072 16.1588 10.3321 15.509 10.3321 14.7292C10.3321 13.9061 10.0072 13.278 9.37906 12.8664C8.7509 12.4549 7.84115 12.1083 6.64982 11.8051V17.5668C7.86282 17.4585 8.77256 17.1552 9.40072 16.657Z" fill="#374151"/>
</svg>
