<svg width="64" height="64" viewBox="0 0 64 64" fill="none" xmlns="http://www.w3.org/2000/svg">
<path d="M18.6667 26.6666H10.6667C9.25219 26.6666 7.89564 27.2285 6.89544 28.2287C5.89525 29.2289 5.33334 30.5855 5.33334 32L5.33334 53.3333C5.33334 54.7478 5.89525 56.1043 6.89544 57.1045C7.89564 58.1047 9.25219 58.6666 10.6667 58.6666H53.3334C54.7478 58.6666 56.1044 58.1047 57.1046 57.1045C58.1048 56.1043 58.6667 54.7478 58.6667 53.3333V32C58.6667 30.5855 58.1048 29.2289 57.1046 28.2287C56.1044 27.2285 54.7478 26.6666 53.3334 26.6666H45.3334" stroke="#374151" stroke-width="4.15476" stroke-linecap="round" stroke-linejoin="round"/>
<path d="M32 37.3334V5.33339" stroke="#374151" stroke-width="4.15476" stroke-linecap="round" stroke-linejoin="round"/>
<path d="M21.3333 15.9999L32 5.33325L42.6667 15.9999" stroke="#374151" stroke-width="4.15476" stroke-linecap="round" stroke-linejoin="round"/>
</svg>
