<svg width="27" height="26" viewBox="0 0 27 26" fill="none" xmlns="http://www.w3.org/2000/svg">
<path d="M10.4332 2.63568H1.18664C0.548302 2.63568 0.030823 3.15316 0.030823 3.7915C0.030823 4.42984 0.548302 4.94732 1.18664 4.94732H10.4332C11.0716 4.94732 11.589 4.42984 11.589 3.7915C11.589 3.15316 11.0716 2.63568 10.4332 2.63568Z" fill="#374151"/>
<path fill-rule="evenodd" clip-rule="evenodd" d="M4.13014 14.0244H1.18664C0.548302 14.0244 0.030823 13.5069 0.030823 12.8686C0.030823 12.2302 0.548302 11.7127 1.18664 11.7127H4.13014C4.69237 10.1384 6.30592 9.19703 7.9531 9.48233C9.60029 9.76763 10.8032 11.1968 10.8032 12.8686C10.8032 14.5403 9.60029 15.9695 7.9531 16.2548C6.30592 16.5401 4.69237 15.5987 4.13014 14.0244ZM7.35103 13.9936C7.97235 13.9936 8.47603 13.4899 8.47603 12.8686C8.47603 12.2472 7.97235 11.7436 7.35103 11.7436C7.05266 11.7436 6.76651 11.8621 6.55554 12.0731C6.34456 12.284 6.22603 12.5702 6.22603 12.8686C6.22603 13.4899 6.72971 13.9936 7.35103 13.9936Z" fill="#374151"/>
<path fill-rule="evenodd" clip-rule="evenodd" d="M19.2483 4.88568C18.7219 6.12917 17.516 6.94914 16.1661 6.98157V6.87369C14.379 6.88053 12.8849 5.51657 12.7293 3.73626C12.5738 1.95595 13.8086 0.353504 15.5698 0.0502664C17.331 -0.252971 19.0307 0.844208 19.4794 2.57404C19.5459 2.56532 19.6133 2.56532 19.6798 2.57404H25.7671C26.4055 2.57404 26.9229 3.09151 26.9229 3.72986C26.9229 4.3682 26.4055 4.88568 25.7671 4.88568H19.6027C19.485 4.90035 19.366 4.90035 19.2483 4.88568ZM17.2968 3.43237C17.2694 2.82882 16.7702 2.35462 16.1661 2.35828V2.41993C15.8566 2.42344 15.5622 2.55433 15.3522 2.78179C15.1422 3.00924 15.0353 3.31316 15.0565 3.62198C15.131 4.22154 15.6658 4.65521 16.2678 4.60425C16.8698 4.5533 17.3241 4.03593 17.2968 3.43237Z" fill="#374151"/>
<path d="M10.4332 21.2829H1.18664C0.531278 21.2829 0 21.8142 0 22.4696C0 23.1249 0.531278 23.6562 1.18664 23.6562H10.4332C11.0716 23.6562 11.589 23.1387 11.589 22.5004C11.589 21.8621 11.0716 21.3446 10.4332 21.3446V21.2829Z" fill="#374151"/>
<path fill-rule="evenodd" clip-rule="evenodd" d="M19.8801 21.2829H25.8442V21.3446C26.4825 21.3446 27 21.8621 27 22.5004C27 23.1387 26.4825 23.6562 25.8442 23.6562H19.6798C18.9748 25.1548 17.2976 25.9332 15.698 25.5043C14.0983 25.0754 13.0356 23.5623 13.1749 21.912C13.3142 20.2617 14.6156 18.9482 16.2645 18.7935C17.9134 18.6388 19.4363 19.6874 19.8801 21.2829ZM15.5473 22.6335C15.7263 23.0533 16.1412 23.3234 16.5976 23.3172C17.2129 23.3088 17.7073 22.8075 17.7072 22.1922C17.7072 21.7358 17.4314 21.3246 17.0091 21.1514C16.5868 20.9782 16.1017 21.0773 15.7812 21.4023C15.4607 21.7272 15.3683 22.2136 15.5473 22.6335Z" fill="#374151"/>
<path d="M25.8442 11.7127H13.5154C12.8771 11.7127 12.3596 12.2302 12.3596 12.8686C12.3596 13.5069 12.8771 14.0244 13.5154 14.0244H25.8442C26.4825 14.0244 27 13.5069 27 12.8686C27 12.2302 26.4825 11.7127 25.8442 11.7127Z" fill="#374151"/>
</svg>
