<svg width="32" height="32" viewBox="0 0 32 32" fill="none" xmlns="http://www.w3.org/2000/svg">
<path fill-rule="evenodd" clip-rule="evenodd" d="M5 13C5 7.06294 10.0629 2 16 2C21.9371 2 27 7.06294 27 13C27 15.8387 25.2069 19.4962 21.6361 24.0421L21.0727 24.7485C20.9765 24.8674 20.8791 24.9869 20.7805 25.107L20.1751 25.8345L19.5416 26.5762L18.8802 27.3321L18.1907 28.1023C18.0735 28.2319 17.9551 28.362 17.8355 28.4928L17.1041 29.2845L16.7279 29.6857C16.3331 30.1048 15.6669 30.1048 15.2721 29.6857C15.019 29.417 14.7705 29.1507 14.5267 28.8868L13.8093 28.1023L13.1198 27.3321L12.4584 26.5762L11.8249 25.8345L11.2195 25.107C11.1209 24.9869 11.0235 24.8674 10.9273 24.7485L10.3639 24.0421C6.79309 19.4962 5 15.8387 5 13ZM25 13C25 8.16751 20.8325 4 16 4C11.1675 4 7 8.16751 7 13C7 15.3146 8.63859 18.6021 11.9305 22.7957L12.4789 23.4836C12.5727 23.5996 12.6677 23.7162 12.7639 23.8335L13.3557 24.5452C13.4568 24.6651 13.559 24.7857 13.6625 24.907L14.2979 25.6422L14.9623 26.3931L15.6557 27.1595L16 27.533L16.7022 26.766L17.3952 25.9913L18.0579 25.2328L18.6903 24.4906C18.7931 24.3683 18.8947 24.2467 18.9951 24.1257L19.582 23.4082C19.7727 23.1718 19.9582 22.9381 20.1387 22.7072L20.6652 22.0229C21.006 21.5722 21.3268 21.1326 21.6273 20.7042L22.0631 20.07C23.956 17.2539 24.9318 14.95 24.9966 13.186L25 13Z" fill="#374151"/>
<path fill-rule="evenodd" clip-rule="evenodd" d="M10 13C10 9.68629 12.6863 7 16 7C19.3137 7 22 9.68629 22 13C22 16.3137 19.3137 19 16 19C12.6863 19 10 16.3137 10 13ZM20 13C20 10.7909 18.2091 9 16 9C13.7909 9 12 10.7909 12 13C12 15.2091 13.7909 17 16 17C18.2091 17 20 15.2091 20 13Z" fill="#374151"/>
</svg>
