<svg width="32" height="32" viewBox="0 0 32 32" fill="none" xmlns="http://www.w3.org/2000/svg">
<path fill-rule="evenodd" clip-rule="evenodd" d="M6 6H26C27.6569 6 29 7.34315 29 9V23C29 24.6569 27.6569 26 26 26H6C4.34315 26 3 24.6569 3 23V9C3 7.34315 4.34315 6 6 6ZM26 8H6C5.44772 8 5 8.44772 5 9V23C5 23.5523 5.44772 24 6 24H26C26.5523 24 27 23.5523 27 23V9C27 8.44772 26.5523 8 26 8Z" fill="#374151"/>
<path d="M16.6 17.8001C16.28 18.0401 15.852 18.0641 15.5104 17.8721L15.4 17.8001L7.4 11.8001C6.95817 11.4687 6.86863 10.8419 7.2 10.4001C7.50588 9.99222 8.06349 9.88455 8.49498 10.131L8.6 10.2001L16 15.7511L23.4 10.2001C23.8078 9.89418 24.3733 9.94695 24.7185 10.3044L24.8 10.4001C25.1059 10.8079 25.0531 11.3734 24.6957 11.7186L24.6 11.8001L16.6 17.8001Z" fill="#374151"/>
</svg>
