<svg width="32" height="32" viewBox="0 0 32 32" fill="none" xmlns="http://www.w3.org/2000/svg">
<path fill-rule="evenodd" clip-rule="evenodd" d="M3 16C3 8.8203 8.8203 3 16 3C23.1797 3 29 8.8203 29 16C29 23.1797 23.1797 29 16 29C8.8203 29 3 23.1797 3 16ZM27 16C27 9.92487 22.0751 5 16 5C9.92487 5 5 9.92487 5 16C5 22.0751 9.92487 27 16 27C22.0751 27 27 22.0751 27 16Z" fill="#374151"/>
<path d="M16 23C13.263 23 11 21.4914 11 19C11 18.4477 11.4477 18 12 18C12.5128 18 12.9355 18.386 12.9933 18.8834L13 19C13 20.1753 14.237 21 16 21C17.763 21 19 20.1753 19 19C19 18.7077 18.7224 18.3557 18.0612 17.9624L17.776 17.8029C17.4189 17.6144 16.9751 17.4174 16.434 17.2139L15.9461 17.0378L15.6838 16.9487C12.5319 15.8981 11 14.6714 11 13C11 10.5086 13.263 9 16 9C18.737 9 21 10.5086 21 13C21 13.5523 20.5523 14 20 14C19.4872 14 19.0645 13.614 19.0067 13.1166L19 13C19 11.8247 17.763 11 16 11C14.237 11 13 11.8247 13 13C13 13.4254 13.5943 13.9815 15.1087 14.606L15.5667 14.7863L16.0542 14.9623L16.3162 15.0513C19.471 16.1029 21 17.3261 21 19C21 21.4914 18.737 23 16 23Z" fill="#374151"/>
<path d="M16 8C16.5128 8 16.9355 8.38604 16.9933 8.88338L17 9V23C17 23.5523 16.5523 24 16 24C15.4872 24 15.0645 23.614 15.0067 23.1166L15 23V9C15 8.44772 15.4477 8 16 8Z" fill="#374151"/>
</svg>
