<svg width="32" height="32" viewBox="0 0 32 32" fill="none" xmlns="http://www.w3.org/2000/svg">
<path fill-rule="evenodd" clip-rule="evenodd" d="M3 16C3 8.8203 8.8203 3 16 3C23.1797 3 29 8.8203 29 16C29 23.1797 23.1797 29 16 29C8.8203 29 3 23.1797 3 16ZM27 16C27 9.92487 22.0751 5 16 5C9.92487 5 5 9.92487 5 16C5 22.0751 9.92487 27 16 27C22.0751 27 27 22.0751 27 16Z" fill="#374151"/>
<path d="M15 22V20H17V22H15Z" fill="#374151"/>
<path d="M16 18C15.4872 18 15.0645 17.614 15.0067 17.1166L15 17V16C15 15.5696 15.2754 15.1874 15.6838 15.0513C17.3189 14.5063 18 13.8252 18 13C18 12.5 17.3333 12 16 12C14.7407 12 14.0761 12.446 14.0062 12.9168L14 13C14 13.5523 13.5523 14 13 14C12.4477 14 12 13.5523 12 13C12 11.25 13.6667 10 16 10C18.3333 10 20 11.25 20 13C20 14.5687 19.0429 15.7581 17.2975 16.5634L17 16.694V17C17 17.5128 16.614 17.9355 16.1166 17.9933L16 18Z" fill="#374151"/>
</svg>
