<svg width="22" height="22" viewBox="0 0 26 28" fill="none" xmlns="http://www.w3.org/2000/svg">
<path fill-rule="evenodd" clip-rule="evenodd" d="M24.5315 7.8412C22.5589 3.10461 17.9371 0.0138827 12.8062 0.000178214C7.27635 -0.0289419 2.35933 3.51313 0.635555 8.76755C-1.08822 14.022 0.775047 19.7884 5.24753 23.0407C9.72001 26.2929 15.78 26.2881 20.2473 23.0286L24.2306 27.0119C24.6355 27.4164 25.2916 27.4164 25.6966 27.0119C26.1011 26.607 26.1011 25.9509 25.6966 25.5459L21.8378 21.687C25.4423 18.0355 26.5041 12.5778 24.5315 7.8412ZM22.6821 16.8309C21.0259 20.8221 17.1274 23.4215 12.8062 23.4159V23.3606C6.94152 23.3531 2.18057 18.6169 2.14259 12.7523C2.137 8.43114 4.73643 4.53263 8.72757 2.87641C12.7187 1.2202 17.3146 2.13284 20.3702 5.18835C23.4257 8.24386 24.3383 12.8398 22.6821 16.8309Z" fill="#374151"/>
</svg>
