<svg width="31" height="25" viewBox="0 0 31 25" fill="none" xmlns="http://www.w3.org/2000/svg">
<path fill-rule="evenodd" clip-rule="evenodd" d="M29.8321 7.48325L28.3181 5.9693C27.5967 5.23971 26.6189 4.82065 25.593 4.80139H19.8256V3.96512C19.8256 1.77524 18.0503 0 15.8605 0H3.96512C3.36788 0 2.88372 0.484157 2.88372 1.0814C2.88372 1.67863 3.36788 2.16279 3.96512 2.16279H15.8172C16.8126 2.16279 17.6195 2.96972 17.6195 3.96512V13.0921C17.6195 13.6893 18.1037 14.1735 18.7009 14.1735C19.2982 14.1735 19.7823 13.6893 19.7823 13.0921V6.96418H25.5498C26.0276 6.96229 26.4857 7.15488 26.8186 7.49767L28.3326 8.93953C28.539 9.1536 28.6878 9.41652 28.7651 9.70372H22.7093C22.1121 9.70372 21.6279 10.1879 21.6279 10.7851C21.6279 11.3824 22.1121 11.8665 22.7093 11.8665H28.8372V17.9944C28.8568 18.4848 28.6756 18.962 28.3355 19.3157C27.9953 19.6695 27.5256 19.8692 27.0349 19.8688H25.4344C25.0796 18.2052 23.6101 17.0161 21.9091 17.0161C20.2081 17.0161 18.7386 18.2052 18.3837 19.8688H10.6842C10.2961 18.1493 8.71275 16.9691 6.95399 17.0884C5.19523 17.2078 3.78585 18.5911 3.63364 20.3473C3.48143 22.1035 4.63183 23.7087 6.34383 24.1288C8.05583 24.549 9.81861 23.6588 10.4967 22.0316H18.5856C19.1476 23.3699 20.4575 24.2406 21.9091 24.2406C23.3606 24.2406 24.6705 23.3699 25.2326 22.0316H27.0349C29.2248 22.0316 31 20.2564 31 18.0665V10.2949C31.0019 9.23928 30.5814 8.2268 29.8321 7.48325ZM7.16605 21.8009C6.68198 21.8245 6.23252 21.5503 6.03203 21.1091C5.83154 20.6679 5.92062 20.149 6.25679 19.7999C6.59296 19.4508 7.10813 19.3422 7.5566 19.5259C8.00508 19.7096 8.29603 20.1484 8.2907 20.633C8.29113 21.2615 7.79411 21.7776 7.16605 21.8009ZM20.8082 21.0677C20.9903 21.5112 21.4223 21.8009 21.9019 21.8009C22.5492 21.801 23.0763 21.2804 23.0842 20.633C23.09 20.1535 22.8057 19.718 22.3644 19.5305C21.9231 19.3429 21.4122 19.4405 21.0711 19.7775C20.7299 20.1144 20.6261 20.6241 20.8082 21.0677Z" fill="#374151"/>
<path d="M13.6977 8.13209C13.6899 7.5381 13.2103 7.05846 12.6163 7.0507H1.0814C0.484157 7.0507 0 7.53485 0 8.13209C0 8.72933 0.484157 9.21349 1.0814 9.21349H12.6163C13.2103 9.20572 13.6899 8.72608 13.6977 8.13209Z" fill="#374151"/>
<path d="M12.6163 11.3763H5.40698C4.80974 11.3763 4.32558 11.8604 4.32558 12.4577C4.32558 13.0549 4.80974 13.5391 5.40698 13.5391H12.6163C13.2135 13.5391 13.6977 13.0549 13.6977 12.4577C13.6977 11.8604 13.2135 11.3763 12.6163 11.3763Z" fill="#374151"/>
</svg>
