<svg width="28" height="30" viewBox="0 0 28 30" fill="none" xmlns="http://www.w3.org/2000/svg">
<path fill-rule="evenodd" clip-rule="evenodd" d="M16.2711 0.589923L25.6044 5.76992C27.0878 6.59625 28.0052 8.16306 28 9.86102V19.9099C28.0052 21.6079 27.0878 23.1747 25.6044 24.001L16.2711 29.181C14.8592 29.9676 13.1408 29.9676 11.7289 29.181L2.39557 24.001C0.912244 23.1747 -0.00520125 21.6079 2.21864e-05 19.9099V9.86102C-0.00520125 8.16306 0.912244 6.59625 2.39557 5.76992L11.7289 0.589923C13.1408 -0.196641 14.8592 -0.196641 16.2711 0.589923ZM24.4067 21.9632C25.1436 21.5415 25.6 20.759 25.6044 19.9099V9.86102C25.6 9.01192 25.1436 8.22946 24.4067 7.80769L15.0733 2.6277C14.3674 2.23442 13.5082 2.23442 12.8022 2.6277L3.46891 7.80769C2.73195 8.22946 2.27552 9.01192 2.27113 9.86102V19.9099C2.27552 20.759 2.73195 21.5415 3.46891 21.9632L12.8022 27.1432C13.5082 27.5365 14.3674 27.5365 15.0733 27.1432L24.4067 21.9632Z" fill="#464646"/>
<path d="M21.28 8.97435L14.7 12.6299C14.2669 12.88 13.7332 12.88 13.3 12.6299L6.72003 8.97435C6.35524 8.76087 5.9035 8.76139 5.5392 8.97571C5.17489 9.19003 4.955 9.58464 4.9644 10.0072C4.97379 10.4298 5.21101 10.8142 5.58448 11.0121L12.1645 14.6677C12.3827 14.7835 12.612 14.8773 12.8489 14.9477V21.8854C12.8489 22.5298 13.3712 23.0521 14.0156 23.0521C14.6599 23.0521 15.1822 22.5298 15.1822 21.8854V14.8855C15.4096 14.8231 15.6289 14.7344 15.8356 14.621L22.4156 10.9655C22.9634 10.6449 23.1544 9.94511 22.8454 9.39065C22.5364 8.83618 21.8409 8.63047 21.28 8.92769V8.97435Z" fill="#464646"/>
</svg>
